<?xml version="1.0" encoding="UTF-8"?>
<svg width="24px" height="24px" viewBox="0 0 24 24" version="1.1" xmlns="http://www.w3.org/2000/svg" xmlns:xlink="http://www.w3.org/1999/xlink">
    <title>icon-brush</title>
    <g id="icon-brush" stroke="none" stroke-width="1" fill="none" fill-rule="evenodd">
        <path d="M5,5.5 C5,3 6.5,2 8.5,2 C9.83333333,2 13.8333333,2 20.5,2 C18.8333333,3.33333333 18,4.66666667 18,6 C18,7.33333333 18.1666667,8.5 18.5,9.5 L5,9.5 C5,8.5 5,7.16666667 5,5.5 Z" id="Path" stroke="#000000" stroke-width="2" stroke-linejoin="round"></path>
        <path d="M5,10 C5,10.6666667 5,11.3333333 5,12 C5,13 6,14 7,14 C7.66666667,14 8.5,14 9.5,14 C9.5,16 9.5,18 9.5,20 C9.5,23 14,23 14,20 C14,18 14,16 14,14 C15,14 15.8333333,14 16.5,14 C17.5,14 18.5,13 18.5,12 C18.5,11.3333333 18.5,10.6666667 18.5,10" id="Path-2" stroke="#000000" stroke-width="2" stroke-linecap="round"></path>
    </g>
</svg>