<?xml version="1.0" encoding="utf-8"?>
<!-- Generator: Adobe Illustrator 16.0.0, SVG Export Plug-In . SVG Version: 6.00 Build 0)  -->
<!DOCTYPE svg PUBLIC "-//W3C//DTD SVG 1.1//EN" "http://www.w3.org/Graphics/SVG/1.1/DTD/svg11.dtd">
<svg version="1.1" id="Layer_1" xmlns="http://www.w3.org/2000/svg" xmlns:xlink="http://www.w3.org/1999/xlink" x="0px" y="0px"
	 width="24px" height="24px" viewBox="0 0 24 24" enable-background="new 0 0 24 24" xml:space="preserve">
<path d="M5,3h4c1.104,0,2,0.896,2,2v4c0,1.104-0.896,2-2,2H5c-1.104,0-2-0.896-2-2V5C3,3.9,3.9,3,5,3z M5,5v4h4V5H5z M15,3h4
	c1.104,0,2,0.896,2,2v4c0,1.104-0.896,2-2,2h-4c-1.104,0-2-0.896-2-2V5C13,3.9,13.9,3,15,3z M15,5v4h4V5H15z M5,13h4
	c1.104,0,2,0.896,2,2v4c0,1.104-0.896,2-2,2H5c-1.104,0-2-0.896-2-2v-4C3,13.9,3.9,13,5,13z M5,15v4h4v-4H5z M15,13h4
	c1.104,0,2,0.896,2,2v4c0,1.104-0.896,2-2,2h-4c-1.104,0-2-0.896-2-2v-4C13,13.9,13.9,13,15,13z M15,15v4h4v-4H15z"/>
</svg>
