<?xml version="1.0" encoding="utf-8"?>
<!-- Generator: Adobe Illustrator 16.0.0, SVG Export Plug-In . SVG Version: 6.00 Build 0)  -->
<!DOCTYPE svg PUBLIC "-//W3C//DTD SVG 1.1//EN" "http://www.w3.org/Graphics/SVG/1.1/DTD/svg11.dtd">
<svg version="1.1" id="Layer_1" xmlns="http://www.w3.org/2000/svg" xmlns:xlink="http://www.w3.org/1999/xlink" x="0px" y="0px"
	 width="30px" height="30px" viewBox="0 0 30 30" enable-background="new 0 0 30 30" xml:space="preserve">
<path fill="#FFFFFF" d="M13.239,20.198c0.492-0.491,1.08-0.738,1.76-0.738c0.681,0,1.27,0.247,1.763,0.738
	c0.491,0.493,0.738,1.081,0.738,1.761c0,0.682-0.247,1.261-0.738,1.742c-0.493,0.48-1.081,0.721-1.763,0.721
	c-0.68,0-1.268-0.24-1.76-0.721c-0.493-0.479-0.739-1.061-0.739-1.742C12.5,21.279,12.747,20.691,13.239,20.198z"/>
<path fill="#FFFFFF" d="M16.5,15.438c0,0.553-0.447,1-1,1h-1c-0.553,0-1-0.447-1-1V5.75c0-0.552,0.447-1,1-1h1c0.553,0,1,0.448,1,1
	V15.438z"/>
</svg>
