<?xml version="1.0" encoding="utf-8"?>
<!-- Generator: Adobe Illustrator 16.0.0, SVG Export Plug-In . SVG Version: 6.00 Build 0)  -->
<!DOCTYPE svg PUBLIC "-//W3C//DTD SVG 1.1//EN" "http://www.w3.org/Graphics/SVG/1.1/DTD/svg11.dtd">
<svg version="1.1" id="Layer_1" xmlns="http://www.w3.org/2000/svg" xmlns:xlink="http://www.w3.org/1999/xlink" x="0px" y="0px"
	 width="24px" height="34px" viewBox="0 -5 24 34" enable-background="new 0 -5 24 34" xml:space="preserve">
<path d="M9,4c0-1.657,1.344-3,3-3c1.657,0,3,1.343,3,3s-1.344,3-3,3S9,5.657,9,4z M9,12c0-1.657,1.344-3,3-3s3,1.343,3,3
	c0,1.656-1.344,3-3,3S9,13.656,9,12z M9,20c0-1.656,1.344-3,3-3s3,1.344,3,3s-1.344,3-3,3S9,21.656,9,20z"/>
</svg>
